PathFileType	4	(X/Y/Z)	C:/Users/opensim2020/Desktop/walking_exp_matlab/subject01/subject01_trc/subject01_walking17_run_cyclic.trc	
DataRate	CameraRate	NumFrames	NumMarkers	Units	OrigDataRate	OrigDataStartFrame	OrigNumFrames	
100.00	100.00	5	61	mm	100.00	303	58	
Frame#	Time	LTHI			LKNE			RELB			STRN			RWRA			LSHO			RFRM			RUPA			RSHO			RASI			RBHD			RFIN			LFHD			RFHD			CLAV			LHEE			RWRB			LASI			LBHD			LWRA			LTIB			RTHI			LWRB			LTOE			RKNE			C7			LFRM			LFIN			LUPA			LELB			RTIB			RTOE			RBAK			RANK			T10			LPSI			LANK			RHEE			RPSI			*39			*40			*41			*42			*43			*44			*45			*46			*47			*48			*49			*50			*51			*52			*53			*54			*55			*56			*57			*58			*59			*60			
		X1	Y1	Z1	X2	Y2	Z2	X3	Y3	Z3	X4	Y4	Z4	X5	Y5	Z5	X6	Y6	Z6	X7	Y7	Z7	X8	Y8	Z8	X9	Y9	Z9	X10	Y10	Z10	X11	Y11	Z11	X12	Y12	Z12	X13	Y13	Z13	X14	Y14	Z14	X15	Y15	Z15	X16	Y16	Z16	X17	Y17	Z17	X18	Y18	Z18	X19	Y19	Z19	X20	Y20	Z20	X21	Y21	Z21	X22	Y22	Z22	X23	Y23	Z23	X24	Y24	Z24	X25	Y25	Z25	X26	Y26	Z26	X27	Y27	Z27	X28	Y28	Z28	X29	Y29	Z29	X30	Y30	Z30	X31	Y31	Z31	X32	Y32	Z32	X33	Y33	Z33	X34	Y34	Z34	X35	Y35	Z35	X36	Y36	Z36	X37	Y37	Z37	X38	Y38	Z38	X39	Y39	Z39	X40	Y40	Z40	X41	Y41	Z41	X42	Y42	Z42	X43	Y43	Z43	X44	Y44	Z44	X45	Y45	Z45	X46	Y46	Z46	X47	Y47	Z47	X48	Y48	Z48	X49	Y49	Z49	X50	Y50	Z50	X51	Y51	Z51	X52	Y52	Z52	X53	Y53	Z53	X54	Y54	Z54	X55	Y55	Z55	X56	Y56	Z56	X57	Y57	Z57	X58	Y58	Z58	X59	Y59	Z59	X60	Y60	Z60	X61	Y61	Z61	

20	0.190	-539.45886	-557.11066	555.97296	-513.49066	-528.56982	425.72382	-89.38324	-700.42194	1121.26794	-415.37057	-446.29120	1125.88672	-164.67729	-579.10681	908.97638	-591.40070	-512.71075	1296.30054	-93.61177	-660.71576	992.53516	-149.85905	-648.83154	1224.33325	-278.25430	-513.57965	1334.45093	-288.10327	-565.33130	878.00604	-363.78616	-585.80249	1542.05298	-135.89124	-544.76428	844.73584	-493.00842	-500.84341	1609.30518	-381.59610	-487.91077	1619.75867	-427.80914	-460.47440	1287.38367	-377.87729	-754.96393	51.47721	-120.25674	-606.34192	883.54865	-496.38052	-574.55524	886.75916	-482.16766	-598.28223	1534.31873	-602.22876	-370.40231	918.98840	-503.50461	-604.98328	256.15237	-211.50253	-515.71106	564.74548	-633.69025	-381.80444	868.12421	-443.25308	-565.01440	29.56194	-241.05524	-481.21811	413.95828	-438.76816	-594.62115	1376.10339	-685.39136	-478.59271	924.15161	-608.44556	-305.89777	876.80933	-683.40198	-564.36035	1128.14099	-717.30634	-582.56714	980.46362	-230.55705	-650.58472	381.06296	-247.16306	-854.25031	188.65637	-343.72263	-684.49939	1211.69470	-267.00113	-847.76477	330.32813	-399.82513	-695.63043	1107.83850	-434.89200	-753.07965	905.14618	-433.64587	-703.19641	69.11182	-320.29755	-899.47296	358.45465	-291.50159	-741.24744	892.42603	-3101.94727	1973.10449	1023.30322	-3140.62549	2012.44788	1022.03278				-403.61203	-511.03592	1645.94141																																																						 
21	0.200	-539.80225	-524.70398	554.23151	-513.36432	-505.80151	421.32474	-89.06597	-665.51062	1131.12891	-413.24481	-401.75516	1124.22510	-148.77600	-556.15210	907.29211	-590.13446	-462.10440	1294.12048	-84.68697	-633.58411	999.45160	-153.07649	-610.51727	1228.34692	-279.19031	-471.69418	1333.87708	-287.96085	-523.06921	876.97723	-366.55872	-542.28827	1540.67590	-116.10153	-525.91083	843.09644	-494.89804	-455.82523	1607.63623	-383.36829	-444.20273	1618.42139	-426.71878	-415.39230	1286.29944	-379.23914	-755.16046	56.80309	-103.39955	-586.41858	885.31024	-500.27292	-535.45941	882.65234	-485.02698	-553.23328	1532.68323	-585.96979	-302.12662	933.93280	-505.10037	-592.43457	256.10782	-213.73096	-448.14935	575.93591	-616.59326	-307.40594	881.51270	-443.56143	-566.24994	29.40891	-246.71292	-401.42511	428.78043	-441.55411	-550.15271	1374.28833	-673.27850	-406.04352	928.59137	-588.03778	-233.52116	897.49103	-680.92896	-503.81369	1122.96399	-711.31476	-514.23199	974.88019	-232.14117	-567.95502	385.92569	-244.61414	-754.93439	178.05275	-346.21332	-641.22418	1211.33496	-264.80753	-762.76709	319.14935	-402.42065	-651.82050	1107.24854	-434.55777	-709.70612	906.30750	-434.94006	-702.40088	72.12731	-316.68161	-818.85571	342.22702	-292.83820	-698.18604	896.52423	-3101.94141	1973.04224	1023.63226	-3140.70117	2012.46924	1022.07941				-405.78928	-468.09781	1644.93848																																																						 
22	0.210	-540.49854	-493.61578	550.64014	-513.47540	-482.22574	416.73944	-88.71978	-630.91144	1142.05359	-411.34015	-358.10995	1123.71570	-135.85886	-531.37714	910.10443	-588.33453	-411.81882	1294.35193	-77.35499	-605.33441	1008.94318	-155.97897	-571.77612	1234.13574	-279.78995	-429.94589	1334.03943	-288.78064	-478.75952	878.68280	-368.68661	-498.38016	1540.63098	-99.63804	-504.32809	846.30426	-496.61237	-410.59052	1606.73877	-384.99615	-400.05411	1618.23022	-425.12634	-370.16901	1286.16931	-381.22900	-755.29620	64.40694	-89.66058	-563.00275	892.49377	-501.64771	-487.02307	882.66089	-487.23126	-508.10364	1531.92749	-570.51935	-237.31276	953.24982	-505.89227	-581.19049	256.26447	-217.85420	-382.86304	589.14905	-599.09253	-236.14188	900.00238	-443.82986	-567.83282	29.48518	-253.26068	-323.75473	447.45282	-443.46375	-505.95157	1373.20154	-660.42792	-336.42282	935.63525	-567.85669	-165.01151	923.46399	-677.63226	-444.32376	1120.74878	-704.57770	-446.89874	971.25012	-234.44696	-486.21375	392.29425	-242.54979	-652.60260	167.58563	-348.78873	-597.88660	1211.41772	-263.14691	-676.42603	306.71078	-405.25699	-607.54199	1106.91724	-435.33948	-666.97845	907.48755	-436.75464	-701.86755	76.94558	-313.69238	-736.25024	323.68997	-294.87689	-654.61261	899.72632	-3101.91919	1973.08105	1023.83966	-3140.79175	2012.61206	1022.10205				-407.77094	-423.47446	1644.90332																																																						 
23	0.220	-541.08557	-463.38019	546.98126	-514.40845	-460.12045	411.02594	-88.34792	-597.16302	1153.97302	-409.07843	-313.24741	1124.76404	-125.27739	-504.21286	917.33521	-586.64929	-362.33505	1296.77136	-71.53930	-576.09637	1020.46423	-158.04726	-533.49487	1241.85010	-279.68610	-388.19733	1335.18616	-290.51422	-434.37296	881.49341	-370.09821	-454.12473	1541.79187	-86.37347	-479.61774	853.61237	-497.91412	-365.41202	1606.88843	-386.30212	-355.84738	1619.34827	-422.91830	-325.00595	1287.35266	-383.47787	-754.22003	75.00948	-78.85732	-537.07178	902.95508	-503.83578	-443.34836	880.83453	-488.65567	-462.82654	1531.96252	-554.88184	-175.79652	976.40491	-506.70801	-572.27509	256.92694	-223.48274	-320.74963	604.50201	-581.13074	-168.68234	922.28937	-444.21939	-569.21368	29.36091	-260.53445	-249.09192	469.19830	-444.54999	-461.36285	1373.40186	-647.49286	-269.80725	945.61127	-548.67987	-101.51982	953.24347	-674.44354	-386.10187	1121.14392	-697.38196	-380.57193	970.47559	-237.76285	-406.10971	399.65240	-241.86177	-548.44470	159.38997	-351.85065	-554.49396	1212.17969	-262.32101	-588.39417	293.68854	-407.87909	-562.74390	1107.35767	-436.77637	-622.97406	908.40106	-438.82645	-700.69324	83.40456	-311.68500	-651.10028	303.69791	-296.90750	-610.26453	902.52051	-3102.19873	1972.92761	1024.07202	-3140.80151	2012.48462	1022.10590				-409.51422	-378.24545	1645.72327																																																						 
24	0.230	-541.60706	-434.03598	543.79053	-516.33813	-440.88351	406.02869	-88.26673	-563.59009	1166.68933	-406.90707	-268.19040	1127.03076	-116.97941	-474.57037	927.66846	-585.09912	-313.46832	1300.88586	-67.35789	-545.62701	1033.30066	-159.31808	-495.86844	1250.83728	-278.82654	-346.30411	1337.46960	-293.02960	-389.98578	885.51959	-370.70166	-409.57007	1544.00159	-75.89397	-451.79306	863.87445	-498.55896	-320.10989	1608.17969	-386.94812	-311.22217	1621.65076	-420.47180	-279.71381	1289.72266	-386.50269	-750.25598	88.70339	-70.63302	-508.64337	915.50635	-506.80573	-399.67310	880.22363	-489.36481	-417.64044	1533.19910	-540.44263	-118.44782	1001.42303	-508.15549	-563.59631	260.31415	-229.37579	-261.59479	622.02881	-563.57874	-105.64770	947.29120	-444.70313	-569.47375	29.05319	-267.20227	-178.39760	493.53201	-445.24380	-416.34158	1374.71204	-634.59680	-205.73268	958.17767	-530.92676	-42.89688	985.18683	-671.59534	-329.08719	1123.88928	-690.16241	-315.60739	972.76007	-241.02127	-328.00128	407.03387	-242.17523	-441.87616	152.78862	-355.14352	-509.55191	1213.04614	-262.34012	-498.29520	280.77277	-410.51129	-517.32751	1108.64038	-438.42682	-578.24579	909.64050	-441.20840	-697.21619	91.99403	-310.95395	-563.23651	283.30139	-298.38818	-565.93518	905.18896	-3102.04004	1973.15332	1023.43488	-3140.77612	2012.58313	1022.11426				-411.10263	-332.75427	1647.53552																																																						 
